<?xml version="1.0" encoding="utf-8"?>
<svg viewBox="0 0 500 500" xmlns="http://www.w3.org/2000/svg">
  <mask id="a">
    <circle cx="256" cy="256" r="256" fill="#fff"/>
  </mask>
  <g mask="url(#a)" transform="matrix(0.963873, 0, 0, 0.973397, 3.854206, 0.997337)" style="">
    <path fill="#ffda44" d="M -32.564 57.9 L 259.935 -20.46 L 512 0 L 512 56.8 L 497.3 86.6 L 512 113.8 L 512 170.6 L 496.2 199 L 512 227.6 L 512 284.4 L 493.6 313.8 L 512 341.3 L 512 398.2 L 495.3 427 L 512 455.1 L 512 512 L 0 512 L 0 455.1 L 24.2 427.7 L 0 398.2 L 0 341.3 L 21 313.6 L 0 284.4 L -32.564 57.9 Z"/>
    <path fill="#d80027" d="M 1.837 60.192 L 3.194 113.122 L 512 113.8 L 512 56.8 L 1.837 60.192 Z M 0.479 171.957 C 2.499 161.855 -2.227 229.604 -2.233 229.635 L 512 227.6 L 512 170.6 L 0.479 171.957 Z M 0 284.4 L 0 341.3 L 512 341.3 L 512 284.4 L 0 284.4 Z M 0 398.2 L 0 455.1 L 512 455.1 L 512 398.2 L 0 398.2 Z"/>
    <path fill="#4a1f63" d="M 0 0 L 0 256 L 0 0 Z"/>
  </g>
</svg>